<svg width="48" height="48" viewBox="0 0 48 48" fill="none" xmlns="http://www.w3.org/2000/svg">
<path d="M22.6415 0.78435C23.4821 0.298992 24.5179 0.298993 25.3585 0.78435L43.4261 11.2156C44.2667 11.701 44.7846 12.598 44.7846 13.5687V34.4313C44.7846 35.402 44.2667 36.299 43.4261 36.7844L25.3585 47.2156C24.5179 47.701 23.4821 47.701 22.6415 47.2156L4.57393 36.7844C3.73326 36.299 3.21539 35.402 3.21539 34.4313V13.5687C3.21539 12.598 3.73326 11.701 4.57393 11.2156L22.6415 0.78435Z" fill="#DD6D1C"/>
<path d="M29.4375 18.875H25.875C25.2219 18.875 24.6875 18.3406 24.6875 17.6875C24.6875 17.0344 25.2219 16.5 25.875 16.5H29.4375C29.4375 16.5 33 12.5293 33 10.5625C33 8.5957 31.4043 7 29.4375 7C27.4707 7 25.875 8.5957 25.875 10.5625C25.875 11.5088 26.6988 12.9152 27.5561 14.125H25.875C23.9119 14.125 22.3125 15.7244 22.3125 17.6875C22.3125 19.6506 23.9119 21.25 25.875 21.25H29.4375C30.0906 21.25 30.625 21.7844 30.625 22.4375C30.625 23.0906 30.0906 23.625 29.4375 23.625H20.8838C20.29 24.5453 19.6295 25.3951 19.1285 26H29.4375C31.4006 26 33 24.4006 33 22.4375C33 20.4744 31.4006 18.875 29.4375 18.875ZM29.4375 9.375C30.0943 9.375 30.625 9.90566 30.625 10.5625C30.625 11.2193 30.0943 11.75 29.4375 11.75C28.7807 11.75 28.25 11.2193 28.25 10.5625C28.25 9.90566 28.7807 9.375 29.4375 9.375ZM17.5625 16.5C15.5957 16.5 14 18.0957 14 20.0625C14 22.0293 17.5625 26 17.5625 26C17.5625 26 21.125 22.0293 21.125 20.0625C21.125 18.0957 19.5293 16.5 17.5625 16.5ZM17.5625 21.25C16.9057 21.25 16.375 20.7193 16.375 20.0625C16.375 19.4057 16.9057 18.875 17.5625 18.875C18.2193 18.875 18.75 19.4057 18.75 20.0625C18.75 20.7193 18.2193 21.25 17.5625 21.25Z" fill="white"/>
<path d="M6.55088 29.52H8.03888C8.62554 29.52 9.06021 29.6533 9.34288 29.92C9.62554 30.1813 9.76688 30.5893 9.76688 31.144C9.76688 31.9707 9.45754 32.4267 8.83888 32.512C9.22288 32.6027 9.50288 32.784 9.67888 33.056C9.85488 33.3227 9.94288 33.688 9.94288 34.152C9.94288 34.7333 9.80421 35.1867 9.52688 35.512C9.25488 35.8373 8.83888 36 8.27888 36H6.55088V29.52ZM7.99088 32.224C8.36421 32.224 8.62288 32.144 8.76688 31.984C8.91088 31.8187 8.98288 31.5387 8.98288 31.144C8.98288 30.856 8.93754 30.6453 8.84688 30.512C8.76154 30.3733 8.63088 30.2853 8.45488 30.248C8.27888 30.2107 8.01754 30.192 7.67088 30.192H7.45488V32.224H7.99088ZM8.06288 35.352C8.32954 35.352 8.53488 35.312 8.67888 35.232C8.82821 35.1467 8.93221 35.0187 8.99088 34.848C9.04954 34.6773 9.07888 34.4453 9.07888 34.152C9.07888 33.736 8.99354 33.4267 8.82288 33.224C8.65221 33.016 8.37488 32.912 7.99088 32.912H7.45488V35.352H8.06288ZM11.7702 29.52H12.6422L14.0262 36H13.1702L12.8742 34.368H11.5542L11.2422 36H10.3942L11.7702 29.52ZM12.7542 33.72L12.2102 30.8L11.6742 33.72H12.7542ZM14.6837 29.52H15.9877C16.6437 29.52 17.1237 29.656 17.4277 29.928C17.737 30.1947 17.8917 30.632 17.8917 31.24C17.8917 32.072 17.625 32.576 17.0917 32.752L18.0117 36H17.1397L16.2917 32.96H15.5877V36H14.6837V29.52ZM15.9317 32.312C16.321 32.312 16.5984 32.2347 16.7637 32.08C16.9344 31.9253 17.0197 31.6453 17.0197 31.24C17.0197 30.9733 16.9904 30.7653 16.9317 30.616C16.873 30.4613 16.769 30.3493 16.6197 30.28C16.4704 30.2053 16.2597 30.168 15.9877 30.168H15.5877V32.312H15.9317ZM20.4881 36.072C19.8535 36.072 19.3975 35.8933 19.1201 35.536C18.8481 35.1733 18.7121 34.6507 18.7121 33.968V31.512C18.7121 30.84 18.8508 30.3307 19.1281 29.984C19.4055 29.6373 19.8588 29.464 20.4881 29.464C21.1175 29.464 21.5681 29.64 21.8401 29.992C22.1175 30.3387 22.2561 30.8453 22.2561 31.512V33.976C22.2561 34.648 22.1175 35.1653 21.8401 35.528C21.5628 35.8907 21.1121 36.072 20.4881 36.072ZM20.4881 35.36C20.8241 35.36 21.0508 35.2613 21.1681 35.064C21.2855 34.8667 21.3441 34.568 21.3441 34.168V31.328C21.3441 30.9333 21.2855 30.6427 21.1681 30.456C21.0508 30.264 20.8241 30.168 20.4881 30.168C20.1468 30.168 19.9175 30.264 19.8001 30.456C19.6828 30.6427 19.6241 30.9333 19.6241 31.328V34.168C19.6241 34.568 19.6828 34.8667 19.8001 35.064C19.9175 35.2613 20.1468 35.36 20.4881 35.36ZM24.8166 36.072C24.3633 36.072 24.0086 35.9813 23.7526 35.8C23.502 35.6187 23.3286 35.3653 23.2326 35.04C23.1366 34.7147 23.0886 34.3067 23.0886 33.816V29.52H23.9526V33.856C23.9526 34.3467 24.0086 34.72 24.1206 34.976C24.238 35.232 24.47 35.36 24.8166 35.36C25.1633 35.36 25.3926 35.232 25.5046 34.976C25.622 34.72 25.6806 34.3467 25.6806 33.856V29.52H26.5366V33.816C26.5366 34.3067 26.4886 34.7147 26.3926 35.04C26.2966 35.3653 26.1233 35.6187 25.8726 35.8C25.622 35.9813 25.27 36.072 24.8166 36.072ZM27.4884 29.52H28.8964C29.595 29.52 30.0884 29.68 30.3764 30C30.6697 30.32 30.8164 30.8187 30.8164 31.496V33.88C30.8164 34.5947 30.6724 35.128 30.3844 35.48C30.1017 35.8267 29.6297 36 28.9684 36H27.4884V29.52ZM28.9044 35.352C29.219 35.352 29.4457 35.2907 29.5844 35.168C29.7284 35.0453 29.8164 34.88 29.8484 34.672C29.8857 34.4587 29.9044 34.1387 29.9044 33.712V31.608C29.9044 31.24 29.8804 30.96 29.8324 30.768C29.7897 30.5707 29.6964 30.4267 29.5524 30.336C29.4084 30.24 29.1844 30.192 28.8804 30.192H28.3924V35.352H28.9044ZM31.7071 29.52H34.2191V30.192H32.6111V32.336H33.9151V32.976H32.6111V35.352H34.2351V36H31.7071V29.52ZM36.6369 36.072C36.1836 36.072 35.8289 35.9813 35.5729 35.8C35.3223 35.6187 35.1489 35.3653 35.0529 35.04C34.9569 34.7147 34.9089 34.3067 34.9089 33.816V29.52H35.7729V33.856C35.7729 34.3467 35.8289 34.72 35.9409 34.976C36.0583 35.232 36.2903 35.36 36.6369 35.36C36.9836 35.36 37.2129 35.232 37.3249 34.976C37.4423 34.72 37.5009 34.3467 37.5009 33.856V29.52H38.3569V33.816C38.3569 34.3067 38.3089 34.7147 38.2129 35.04C38.1169 35.3653 37.9436 35.6187 37.6929 35.8C37.4423 35.9813 37.0903 36.072 36.6369 36.072ZM39.3087 29.52H40.6127C41.2687 29.52 41.7487 29.656 42.0527 29.928C42.362 30.1947 42.5167 30.632 42.5167 31.24C42.5167 32.072 42.25 32.576 41.7167 32.752L42.6367 36H41.7647L40.9167 32.96H40.2127V36H39.3087V29.52ZM40.5567 32.312C40.946 32.312 41.2234 32.2347 41.3887 32.08C41.5594 31.9253 41.6447 31.6453 41.6447 31.24C41.6447 30.9733 41.6154 30.7653 41.5567 30.616C41.498 30.4613 41.394 30.3493 41.2447 30.28C41.0954 30.2053 40.8847 30.168 40.6127 30.168H40.2127V32.312H40.5567Z" fill="white"/>
</svg>
