<svg width="48" height="48" viewBox="0 0 48 48" fill="none" xmlns="http://www.w3.org/2000/svg">
<path d="M22.6415 0.78435C23.4821 0.298992 24.5179 0.298993 25.3585 0.78435L43.4261 11.2156C44.2667 11.701 44.7846 12.598 44.7846 13.5687V34.4313C44.7846 35.402 44.2667 36.299 43.4261 36.7844L25.3585 47.2156C24.5179 47.701 23.4821 47.701 22.6415 47.2156L4.57393 36.7844C3.73326 36.299 3.21539 35.402 3.21539 34.4313V13.5687C3.21539 12.598 3.73326 11.701 4.57393 11.2156L22.6415 0.78435Z" fill="#E71515"/>
<path d="M23.9656 9.15856C23.7678 9.15173 23.5718 9.1978 23.3977 9.29202C23.2237 9.38625 23.078 9.52521 22.9756 9.69456L14.9756 23.0146C14.5316 23.7546 15.0656 24.6946 15.9296 24.6946H31.9296C32.7936 24.6946 33.3296 23.7546 32.8836 23.0146L24.8836 9.69456C24.7873 9.5354 24.6526 9.40293 24.4919 9.30929C24.3312 9.21565 24.1495 9.16382 23.9636 9.15856H23.9656ZM23.9696 11.0026L29.7916 20.6946H28.4496L25.7616 18.2406L23.9676 20.6946L22.1796 18.2406L19.4916 20.6946H18.1496L23.9696 11.0026Z" fill="white"/>
<path d="M10.4035 36.08C9.8168 36.08 9.3928 35.896 9.13147 35.528C8.87014 35.1547 8.73947 34.6027 8.73947 33.872V31.704C8.73947 31.2027 8.79014 30.792 8.89147 30.472C8.99814 30.1467 9.1768 29.8987 9.42747 29.728C9.68347 29.552 10.0328 29.464 10.4755 29.464C11.0728 29.464 11.5021 29.616 11.7635 29.92C12.0301 30.224 12.1635 30.7013 12.1635 31.352V31.592H11.3155V31.392C11.3155 31.0827 11.2968 30.8453 11.2595 30.68C11.2221 30.5093 11.1421 30.3813 11.0195 30.296C10.9021 30.2107 10.7261 30.168 10.4915 30.168C10.2408 30.168 10.0541 30.2267 9.93147 30.344C9.8088 30.456 9.7288 30.608 9.69147 30.8C9.65947 30.992 9.64347 31.248 9.64347 31.568V33.968C9.64347 34.464 9.70214 34.8213 9.81947 35.04C9.94214 35.2533 10.1741 35.36 10.5155 35.36C10.8515 35.36 11.0808 35.2427 11.2035 35.008C11.3315 34.7733 11.3955 34.3973 11.3955 33.88V33.432H10.5715V32.792H12.2115V36H11.6435L11.5555 35.256C11.3528 35.8053 10.9688 36.08 10.4035 36.08ZM13.1407 29.52H14.4447C15.1007 29.52 15.5807 29.656 15.8847 29.928C16.1941 30.1947 16.3487 30.632 16.3487 31.24C16.3487 32.072 16.0821 32.576 15.5487 32.752L16.4687 36H15.5967L14.7487 32.96H14.0447V36H13.1407V29.52ZM14.3887 32.312C14.7781 32.312 15.0554 32.2347 15.2207 32.08C15.3914 31.9253 15.4767 31.6453 15.4767 31.24C15.4767 30.9733 15.4474 30.7653 15.3887 30.616C15.3301 30.4613 15.2261 30.3493 15.0767 30.28C14.9274 30.2053 14.7167 30.168 14.4447 30.168H14.0447V32.312H14.3887ZM17.3372 29.52H18.2252V36H17.3372V29.52ZM19.3775 29.52H20.2655L21.4095 34.776L22.5615 29.52H23.4415L23.5615 36H22.8335L22.7615 31.296L21.6655 36H21.1535L20.0655 31.296L19.9935 36H19.2575L19.3775 29.52ZM24.5548 29.52H26.1628C26.7228 29.52 27.1281 29.672 27.3788 29.976C27.6348 30.28 27.7628 30.7253 27.7628 31.312C27.7628 31.84 27.6268 32.2507 27.3548 32.544C27.0828 32.8373 26.6881 32.984 26.1708 32.984H25.4588V36H24.5548V29.52ZM25.8748 32.336C26.1414 32.336 26.3468 32.3067 26.4908 32.248C26.6401 32.1893 26.7468 32.088 26.8108 31.944C26.8748 31.8 26.9068 31.592 26.9068 31.32C26.9068 30.9893 26.8828 30.7467 26.8348 30.592C26.7868 30.4373 26.6908 30.328 26.5468 30.264C26.4081 30.2 26.1868 30.168 25.8828 30.168H25.4588V32.336H25.8748ZM28.3985 29.52H30.9105V30.192H29.3025V32.336H30.6065V32.976H29.3025V35.352H30.9265V36H28.3985V29.52ZM33.3283 36.072C32.875 36.072 32.5203 35.9813 32.2643 35.8C32.0137 35.6187 31.8403 35.3653 31.7443 35.04C31.6483 34.7147 31.6003 34.3067 31.6003 33.816V29.52H32.4643V33.856C32.4643 34.3467 32.5203 34.72 32.6323 34.976C32.7497 35.232 32.9817 35.36 33.3283 35.36C33.675 35.36 33.9043 35.232 34.0163 34.976C34.1337 34.72 34.1923 34.3467 34.1923 33.856V29.52H35.0483V33.816C35.0483 34.3067 35.0003 34.7147 34.9043 35.04C34.8083 35.3653 34.635 35.6187 34.3843 35.8C34.1337 35.9813 33.7817 36.072 33.3283 36.072ZM36.0001 29.52H37.3041C37.9601 29.52 38.4401 29.656 38.7441 29.928C39.0534 30.1947 39.2081 30.632 39.2081 31.24C39.2081 32.072 38.9414 32.576 38.4081 32.752L39.3281 36H38.4561L37.6081 32.96H36.9041V36H36.0001V29.52ZM37.2481 32.312C37.6374 32.312 37.9148 32.2347 38.0801 32.08C38.2508 31.9253 38.3361 31.6453 38.3361 31.24C38.3361 30.9733 38.3068 30.7653 38.2481 30.616C38.1894 30.4613 38.0854 30.3493 37.9361 30.28C37.7868 30.2053 37.5761 30.168 37.3041 30.168H36.9041V32.312H37.2481Z" fill="white"/>
</svg>
