<svg width="48" height="48" viewBox="0 0 48 48" fill="none" xmlns="http://www.w3.org/2000/svg">
<path d="M22.6415 0.78435C23.4821 0.298992 24.5179 0.298993 25.3585 0.78435L43.4261 11.2156C44.2667 11.701 44.7846 12.598 44.7846 13.5687V34.4313C44.7846 35.402 44.2667 36.299 43.4261 36.7844L25.3585 47.2156C24.5179 47.701 23.4821 47.701 22.6415 47.2156L4.57393 36.7844C3.73326 36.299 3.21539 35.402 3.21539 34.4313V13.5687C3.21539 12.598 3.73326 11.701 4.57393 11.2156L22.6415 0.78435Z" fill="#228908"/>
<path d="M31.002 18.9686H29.8375V17.8041C29.8379 17.1295 29.6429 16.4692 29.276 15.9031C28.9091 15.337 28.3861 14.8893 27.7702 14.6142C27.1543 14.339 26.4719 14.2482 25.8054 14.3527C25.139 14.4572 24.5171 14.7525 24.0149 15.2029C23.5715 14.8051 23.0337 14.5274 22.4526 14.3962C21.8715 14.2651 21.2665 14.2848 20.6952 14.4536C20.1239 14.6223 19.6053 14.9345 19.1887 15.3604C18.7722 15.7862 18.4716 16.3116 18.3155 16.8865C17.7857 16.6759 17.2124 16.5982 16.6457 16.6603C16.0789 16.7223 15.536 16.9222 15.0644 17.2425C14.5927 17.5628 14.2067 17.9937 13.9399 18.4976C13.6732 19.0014 13.534 19.563 13.5343 20.1331V24.0148C13.5343 26.7944 14.6385 29.4602 16.604 31.4257C18.5695 33.3912 21.2353 34.4954 24.0149 34.4954C26.7945 34.4954 29.4603 33.3912 31.4258 31.4257C33.3913 29.4602 34.4955 26.7944 34.4955 24.0148V22.4621C34.4945 21.5359 34.1261 20.6479 33.4712 19.9929C32.8162 19.338 31.9282 18.9696 31.002 18.9686ZM26.3439 16.6395C26.6527 16.6399 26.9487 16.7627 27.167 16.981C27.3853 17.1993 27.5081 17.4953 27.5085 17.8041V18.9686H25.1794V17.8041C25.1798 17.4953 25.3026 17.1993 25.5209 16.981C25.7392 16.7627 26.0352 16.6399 26.3439 16.6395ZM20.5214 17.8041C20.5214 17.4952 20.6441 17.199 20.8625 16.9806C21.0808 16.7622 21.377 16.6395 21.6859 16.6395C21.9947 16.6395 22.2909 16.7622 22.5093 16.9806C22.7277 17.199 22.8504 17.4952 22.8504 17.8041V21.6858C22.8504 21.9946 22.7277 22.2908 22.5093 22.5092C22.2909 22.7276 21.9947 22.8503 21.6859 22.8503C21.377 22.8503 21.0808 22.7276 20.8625 22.5092C20.6441 22.2908 20.5214 21.9946 20.5214 21.6858V17.8041ZM15.8633 20.1331C15.8633 19.8242 15.986 19.528 16.2044 19.3096C16.4228 19.0913 16.719 18.9686 17.0278 18.9686C17.3367 18.9686 17.6329 19.0913 17.8513 19.3096C18.0697 19.528 18.1924 19.8242 18.1924 20.1331V21.6858C18.1924 21.9946 18.0697 22.2908 17.8513 22.5092C17.6329 22.7276 17.3367 22.8503 17.0278 22.8503C16.719 22.8503 16.4228 22.7276 16.2044 22.5092C15.986 22.2908 15.8633 21.9946 15.8633 21.6858V20.1331ZM32.1665 24.0148C32.1665 26.0914 31.374 28.0896 29.9508 29.6018C28.5276 31.1139 26.581 32.026 24.5082 32.1517C22.4355 32.2774 20.3929 31.6074 18.7973 30.2784C17.2018 28.9493 16.1735 27.0615 15.9225 25.0002C16.507 25.195 17.1326 25.2317 17.7358 25.1064C18.339 24.9811 18.8983 24.6984 19.3569 24.2869C19.9284 24.8004 20.6536 25.1106 21.4198 25.1692C22.1859 25.2278 22.9498 25.0314 23.5928 24.6107C23.7728 24.8415 23.9809 25.0489 24.2122 25.2281C23.3364 26.1612 22.8494 27.3931 22.8504 28.6729C22.8504 28.9817 22.9731 29.2779 23.1915 29.4963C23.4099 29.7147 23.7061 29.8374 24.0149 29.8374C24.3238 29.8374 24.62 29.7147 24.8384 29.4963C25.0567 29.2779 25.1794 28.9817 25.1794 28.6729C25.1802 27.9525 25.4668 27.2618 25.9762 26.7524C26.4856 26.243 27.1762 25.9565 27.8966 25.9557C28.2055 25.9557 28.5017 25.833 28.7201 25.6146C28.9384 25.3962 29.0611 25.1 29.0611 24.7911C29.0611 24.4823 28.9384 24.1861 28.7201 23.9677C28.5017 23.7493 28.2055 23.6266 27.8966 23.6266H26.3439C26.0352 23.6263 25.7392 23.5035 25.5209 23.2852C25.3026 23.0669 25.1798 22.7709 25.1794 22.4621V21.2976H31.002C31.3107 21.2979 31.6067 21.4207 31.8251 21.639C32.0434 21.8574 32.1662 22.1534 32.1665 22.4621V24.0148Z" fill="white"/>
</svg>
