<svg width="48" height="48" viewBox="0 0 48 48" fill="none" xmlns="http://www.w3.org/2000/svg">
<path d="M22.6415 0.78435C23.4821 0.298992 24.5179 0.298993 25.3585 0.78435L43.4261 11.2156C44.2667 11.701 44.7846 12.598 44.7846 13.5687V34.4313C44.7846 35.402 44.2667 36.299 43.4261 36.7844L25.3585 47.2156C24.5179 47.701 23.4821 47.701 22.6415 47.2156L4.57393 36.7844C3.73326 36.299 3.21539 35.402 3.21539 34.4313V13.5687C3.21539 12.598 3.73326 11.701 4.57393 11.2156L22.6415 0.78435Z" fill="#228908"/>
<path d="M29.6251 12.9375H28.6876V12C28.688 11.4569 28.531 10.9254 28.2356 10.4696C27.9403 10.0139 27.5192 9.65345 27.0233 9.43194C26.5275 9.21042 25.9781 9.13731 25.4416 9.22142C24.905 9.30554 24.4044 9.54328 24.0001 9.90591C23.6431 9.58565 23.2101 9.36208 22.7423 9.25648C22.2745 9.15088 21.7875 9.16677 21.3275 9.30263C20.8676 9.43849 20.4501 9.68981 20.1148 10.0327C19.7794 10.3755 19.5374 10.7985 19.4118 11.2613C18.9852 11.0917 18.5237 11.0292 18.0675 11.0792C17.6112 11.1291 17.1741 11.2901 16.7944 11.5479C16.4147 11.8057 16.1039 12.1526 15.8892 12.5583C15.6745 12.9639 15.5623 13.416 15.5626 13.875V17C15.5626 19.2377 16.4516 21.3839 18.0339 22.9662C19.6162 24.5485 21.7624 25.4375 24.0001 25.4375C26.2379 25.4375 28.384 24.5485 29.9663 22.9662C31.5487 21.3839 32.4376 19.2377 32.4376 17V15.75C32.4368 15.0043 32.1402 14.2894 31.6129 13.7622C31.0857 13.2349 30.3708 12.9383 29.6251 12.9375V12.9375ZM25.8751 11.0625C26.1237 11.0627 26.362 11.1616 26.5377 11.3374C26.7135 11.5131 26.8123 11.7514 26.8126 12V12.9375H24.9376V12C24.9379 11.7514 25.0367 11.5131 25.2125 11.3374C25.3883 11.1616 25.6266 11.0627 25.8751 11.0625V11.0625ZM21.1876 12C21.1876 11.7513 21.2864 11.5129 21.4622 11.3371C21.638 11.1612 21.8765 11.0625 22.1251 11.0625C22.3738 11.0625 22.6122 11.1612 22.788 11.3371C22.9638 11.5129 23.0626 11.7513 23.0626 12V15.125C23.0626 15.3736 22.9638 15.6121 22.788 15.7879C22.6122 15.9637 22.3738 16.0625 22.1251 16.0625C21.8765 16.0625 21.638 15.9637 21.4622 15.7879C21.2864 15.6121 21.1876 15.3736 21.1876 15.125V12ZM17.4376 13.875C17.4376 13.6263 17.5364 13.3879 17.7122 13.2121C17.888 13.0362 18.1265 12.9375 18.3751 12.9375C18.6238 12.9375 18.8622 13.0362 19.038 13.2121C19.2138 13.3879 19.3126 13.6263 19.3126 13.875V15.125C19.3126 15.3736 19.2138 15.6121 19.038 15.7879C18.8622 15.9637 18.6238 16.0625 18.3751 16.0625C18.1265 16.0625 17.888 15.9637 17.7122 15.7879C17.5364 15.6121 17.4376 15.3736 17.4376 15.125V13.875ZM30.5626 17C30.5626 18.6717 29.9246 20.2805 28.7788 21.4978C27.6331 22.7152 26.0659 23.4494 24.3973 23.5506C22.7286 23.6519 21.0842 23.1125 19.7996 22.0425C18.5151 20.9726 17.6874 19.4528 17.4853 17.7933C17.9558 17.9501 18.4595 17.9797 18.9451 17.8788C19.4307 17.7779 19.881 17.5503 20.2501 17.219C20.7102 17.6325 21.2941 17.8822 21.9109 17.9293C22.5276 17.9765 23.1427 17.8184 23.6603 17.4797C23.8052 17.6655 23.9727 17.8324 24.1589 17.9768C23.4539 18.7279 23.0618 19.7197 23.0626 20.75C23.0626 20.9986 23.1614 21.2371 23.3372 21.4129C23.513 21.5887 23.7515 21.6875 24.0001 21.6875C24.2488 21.6875 24.4872 21.5887 24.663 21.4129C24.8388 21.2371 24.9376 20.9986 24.9376 20.75C24.9383 20.17 25.1689 19.614 25.579 19.2039C25.9891 18.7938 26.5451 18.5631 27.1251 18.5625C27.3738 18.5625 27.6122 18.4637 27.788 18.2879C27.9638 18.1121 28.0626 17.8736 28.0626 17.625C28.0626 17.3763 27.9638 17.1379 27.788 16.9621C27.6122 16.7862 27.3738 16.6875 27.1251 16.6875H25.8751C25.6266 16.6872 25.3883 16.5883 25.2125 16.4126C25.0367 16.2368 24.9379 15.9985 24.9376 15.75V14.8125H29.6251C29.8737 14.8127 30.112 14.9116 30.2877 15.0874C30.4635 15.2631 30.5623 15.5014 30.5626 15.75V17Z" fill="white"/>
<path d="M8.62119 29.52H10.2292C10.7892 29.52 11.1945 29.672 11.4452 29.976C11.7012 30.28 11.8292 30.7253 11.8292 31.312C11.8292 31.84 11.6932 32.2507 11.4212 32.544C11.1492 32.8373 10.7545 32.984 10.2372 32.984H9.52519V36H8.62119V29.52ZM9.94119 32.336C10.2079 32.336 10.4132 32.3067 10.5572 32.248C10.7065 32.1893 10.8132 32.088 10.8772 31.944C10.9412 31.8 10.9732 31.592 10.9732 31.32C10.9732 30.9893 10.9492 30.7467 10.9012 30.592C10.8532 30.4373 10.7572 30.328 10.6132 30.264C10.4745 30.2 10.2532 30.168 9.94919 30.168H9.52519V32.336H9.94119ZM14.1369 36.072C13.6836 36.072 13.3289 35.9813 13.0729 35.8C12.8223 35.6187 12.6489 35.3653 12.5529 35.04C12.4569 34.7147 12.4089 34.3067 12.4089 33.816V29.52H13.2729V33.856C13.2729 34.3467 13.3289 34.72 13.4409 34.976C13.5583 35.232 13.7903 35.36 14.1369 35.36C14.4836 35.36 14.7129 35.232 14.8249 34.976C14.9423 34.72 15.0009 34.3467 15.0009 33.856V29.52H15.8569V33.816C15.8569 34.3067 15.8089 34.7147 15.7129 35.04C15.6169 35.3653 15.4436 35.6187 15.1929 35.8C14.9423 35.9813 14.5903 36.072 14.1369 36.072ZM16.8087 29.52H17.4247L19.2647 33.824V29.52H20.0167V36H19.4407L17.5767 31.576V36H16.8087V29.52ZM22.6593 36.072C22.0193 36.072 21.5686 35.8827 21.3073 35.504C21.0459 35.12 20.9153 34.592 20.9153 33.92V31.632C20.9153 30.9227 21.0433 30.384 21.2993 30.016C21.5553 29.648 22.0086 29.464 22.6593 29.464C23.2406 29.464 23.6566 29.6213 23.9073 29.936C24.1633 30.2507 24.2913 30.7147 24.2913 31.328V31.84H23.4353V31.384C23.4353 31.0853 23.4219 30.856 23.3953 30.696C23.3686 30.536 23.2993 30.408 23.1873 30.312C23.0806 30.216 22.9073 30.168 22.6673 30.168C22.4219 30.168 22.2379 30.2213 22.1153 30.328C21.9979 30.4293 21.9206 30.5733 21.8833 30.76C21.8459 30.9413 21.8273 31.1867 21.8273 31.496V34.064C21.8273 34.3947 21.8539 34.6533 21.9073 34.84C21.9606 35.0267 22.0459 35.16 22.1633 35.24C22.2859 35.32 22.4539 35.36 22.6673 35.36C22.8966 35.36 23.0673 35.3093 23.1793 35.208C23.2913 35.1067 23.3606 34.968 23.3873 34.792C23.4193 34.616 23.4353 34.376 23.4353 34.072V33.592H24.2913V34.072C24.2913 34.7173 24.1686 35.2133 23.9233 35.56C23.6833 35.9013 23.2619 36.072 22.6593 36.072ZM25.1524 29.52H26.0564V32.32H27.7204V29.52H28.6244V36H27.7204V32.968H26.0564V36H25.1524V29.52ZM29.6368 29.52H32.1488V30.192H30.5408V32.336H31.8448V32.976H30.5408V35.352H32.1648V36H29.6368V29.52ZM34.5666 36.072C34.1133 36.072 33.7586 35.9813 33.5026 35.8C33.252 35.6187 33.0786 35.3653 32.9826 35.04C32.8866 34.7147 32.8386 34.3067 32.8386 33.816V29.52H33.7026V33.856C33.7026 34.3467 33.7586 34.72 33.8706 34.976C33.988 35.232 34.22 35.36 34.5666 35.36C34.9133 35.36 35.1426 35.232 35.2546 34.976C35.372 34.72 35.4306 34.3467 35.4306 33.856V29.52H36.2866V33.816C36.2866 34.3067 36.2386 34.7147 36.1426 35.04C36.0466 35.3653 35.8733 35.6187 35.6226 35.8C35.372 35.9813 35.02 36.072 34.5666 36.072ZM37.2384 29.52H38.5424C39.1984 29.52 39.6784 29.656 39.9824 29.928C40.2917 30.1947 40.4464 30.632 40.4464 31.24C40.4464 32.072 40.1797 32.576 39.6464 32.752L40.5664 36H39.6944L38.8464 32.96H38.1424V36H37.2384V29.52ZM38.4864 32.312C38.8757 32.312 39.153 32.2347 39.3184 32.08C39.489 31.9253 39.5744 31.6453 39.5744 31.24C39.5744 30.9733 39.545 30.7653 39.4864 30.616C39.4277 30.4613 39.3237 30.3493 39.1744 30.28C39.025 30.2053 38.8144 30.168 38.5424 30.168H38.1424V32.312H38.4864Z" fill="white"/>
</svg>
