<svg width="49" height="48" viewBox="0 0 49 48" fill="none" xmlns="http://www.w3.org/2000/svg">
<path d="M23.1415 0.78435C23.9821 0.298992 25.0179 0.298993 25.8585 0.78435L43.9261 11.2156C44.7667 11.701 45.2846 12.598 45.2846 13.5687V34.4313C45.2846 35.402 44.7667 36.299 43.9261 36.7844L25.8585 47.2156C25.0179 47.701 23.9821 47.701 23.1415 47.2156L5.07393 36.7844C4.23326 36.299 3.71539 35.402 3.71539 34.4313V13.5687C3.71539 12.598 4.23326 11.701 5.07393 11.2156L23.1415 0.78435Z" fill="#1CA3DD"/>
<g clip-path="url(#clip0)">
<path d="M27.8333 9.00001C27 9.00001 26.3333 9.66668 26.3333 10.5C26.3333 11.3333 27 12 27.8333 12C28.6667 12 29.3333 11.3333 29.3333 10.5C29.3333 9.66668 28.6667 9.00001 27.8333 9.00001ZM24.8333 11.4167C24.4417 11.4167 24.0833 11.575 23.8333 11.8333L20.75 14.9083C20.4917 15.1667 20.3333 15.5 20.3333 15.9167C20.3333 16.4417 20.6083 16.8833 21.0417 17.1417L23.8333 18.8333V23H25.3333V17.5833L23.4583 16.2083L25.3917 14.25L26.8333 16.3333H30.3333V14.8333H27.6667L26.05 12.1083C25.8083 11.6917 25.3333 11.4167 24.8333 11.4167V11.4167ZM22.8333 10.5H17C16.5417 10.5 16.1667 10.125 16.1667 9.66668C16.1667 9.20834 16.5417 8.83334 17 8.83334H25.1583C24.9833 9.11668 24.8417 9.42501 24.7667 9.75834C24.05 9.77501 23.375 10.0417 22.8333 10.5V10.5ZM18.6667 18C16.3667 18 14.5 19.8667 14.5 22.1667C14.5 24.4667 16.3667 26.3333 18.6667 26.3333C20.9667 26.3333 22.8333 24.4667 22.8333 22.1667C22.8333 19.8667 20.9667 18 18.6667 18ZM18.6667 25.0833C17.0583 25.0833 15.75 23.775 15.75 22.1667C15.75 20.5583 17.0583 19.25 18.6667 19.25C20.275 19.25 21.5833 20.5583 21.5833 22.1667C21.5833 23.775 20.275 25.0833 18.6667 25.0833ZM30.3333 18C28.0333 18 26.1667 19.8667 26.1667 22.1667C26.1667 24.4667 28.0333 26.3333 30.3333 26.3333C32.6333 26.3333 34.5 24.4667 34.5 22.1667C34.5 19.8667 32.6333 18 30.3333 18ZM30.3333 25.0833C28.725 25.0833 27.4167 23.775 27.4167 22.1667C27.4167 20.5583 28.725 19.25 30.3333 19.25C31.9417 19.25 33.25 20.5583 33.25 22.1667C33.25 23.775 31.9417 25.0833 30.3333 25.0833ZM18.9333 17.1667H15.3333C14.8733 17.1667 14.5 16.7917 14.5 16.3333C14.5 15.875 14.8733 15.5 15.3333 15.5H18.7083C18.6917 15.6333 18.6667 15.775 18.6667 15.9167C18.6667 16.3583 18.7667 16.7833 18.9333 17.1667ZM19.5 13.8333H16.1667C15.7083 13.8333 15.3333 13.4583 15.3333 13C15.3333 12.5417 15.7083 12.1667 16.1667 12.1667H21.1417L19.575 13.725C19.5417 13.7583 19.5 13.8 19.5 13.8333Z" fill="white"/>
</g>
<path d="M11.6368 29.52H12.9408C13.5968 29.52 14.0768 29.656 14.3808 29.928C14.6901 30.1947 14.8448 30.632 14.8448 31.24C14.8448 32.072 14.5781 32.576 14.0448 32.752L14.9648 36H14.0928L13.2448 32.96H12.5408V36H11.6368V29.52ZM12.8848 32.312C13.2741 32.312 13.5515 32.2347 13.7168 32.08C13.8875 31.9253 13.9728 31.6453 13.9728 31.24C13.9728 30.9733 13.9435 30.7653 13.8848 30.616C13.8261 30.4613 13.7221 30.3493 13.5728 30.28C13.4235 30.2053 13.2128 30.168 12.9408 30.168H12.5408V32.312H12.8848ZM17.4413 36.072C16.8066 36.072 16.3506 35.8933 16.0733 35.536C15.8013 35.1733 15.6653 34.6507 15.6653 33.968V31.512C15.6653 30.84 15.8039 30.3307 16.0813 29.984C16.3586 29.6373 16.8119 29.464 17.4413 29.464C18.0706 29.464 18.5213 29.64 18.7933 29.992C19.0706 30.3387 19.2093 30.8453 19.2093 31.512V33.976C19.2093 34.648 19.0706 35.1653 18.7933 35.528C18.5159 35.8907 18.0653 36.072 17.4413 36.072ZM17.4413 35.36C17.7773 35.36 18.0039 35.2613 18.1213 35.064C18.2386 34.8667 18.2973 34.568 18.2973 34.168V31.328C18.2973 30.9333 18.2386 30.6427 18.1213 30.456C18.0039 30.264 17.7773 30.168 17.4413 30.168C17.0999 30.168 16.8706 30.264 16.7533 30.456C16.6359 30.6427 16.5773 30.9333 16.5773 31.328V34.168C16.5773 34.568 16.6359 34.8667 16.7533 35.064C16.8706 35.2613 17.0999 35.36 17.4413 35.36ZM21.7698 36.072C21.3164 36.072 20.9618 35.9813 20.7058 35.8C20.4551 35.6187 20.2818 35.3653 20.1858 35.04C20.0898 34.7147 20.0418 34.3067 20.0418 33.816V29.52H20.9058V33.856C20.9058 34.3467 20.9618 34.72 21.0738 34.976C21.1911 35.232 21.4231 35.36 21.7698 35.36C22.1164 35.36 22.3458 35.232 22.4578 34.976C22.5751 34.72 22.6338 34.3467 22.6338 33.856V29.52H23.4898V33.816C23.4898 34.3067 23.4418 34.7147 23.3458 35.04C23.2498 35.3653 23.0764 35.6187 22.8258 35.8C22.5751 35.9813 22.2231 36.072 21.7698 36.072ZM24.4415 29.52H25.3455V35.352H27.0015V36H24.4415V29.52ZM27.6212 29.52H30.1332V30.192H28.5252V32.336H29.8292V32.976H28.5252V35.352H30.1492V36H27.6212V29.52ZM32.551 36.072C32.0977 36.072 31.743 35.9813 31.487 35.8C31.2363 35.6187 31.063 35.3653 30.967 35.04C30.871 34.7147 30.823 34.3067 30.823 33.816V29.52H31.687V33.856C31.687 34.3467 31.743 34.72 31.855 34.976C31.9723 35.232 32.2043 35.36 32.551 35.36C32.8977 35.36 33.127 35.232 33.239 34.976C33.3563 34.72 33.415 34.3467 33.415 33.856V29.52H34.271V33.816C34.271 34.3067 34.223 34.7147 34.127 35.04C34.031 35.3653 33.8577 35.6187 33.607 35.8C33.3563 35.9813 33.0043 36.072 32.551 36.072ZM35.2228 29.52H36.5268C37.1828 29.52 37.6628 29.656 37.9668 29.928C38.2761 30.1947 38.4308 30.632 38.4308 31.24C38.4308 32.072 38.1641 32.576 37.6308 32.752L38.5508 36H37.6788L36.8307 32.96H36.1268V36H35.2228V29.52ZM36.4708 32.312C36.8601 32.312 37.1374 32.2347 37.3028 32.08C37.4734 31.9253 37.5588 31.6453 37.5588 31.24C37.5588 30.9733 37.5294 30.7653 37.4708 30.616C37.4121 30.4613 37.3081 30.3493 37.1588 30.28C37.0094 30.2053 36.7988 30.168 36.5268 30.168H36.1268V32.312H36.4708Z" fill="white"/>
<defs>
<clipPath id="clip0">
<rect width="20" height="20" fill="white" transform="translate(14.5 8)"/>
</clipPath>
</defs>
</svg>
