<svg width="48" height="48" viewBox="0 0 48 48" fill="none" xmlns="http://www.w3.org/2000/svg">
<path d="M22.6415 0.78435C23.4821 0.298992 24.5179 0.298993 25.3585 0.78435L43.4261 11.2156C44.2667 11.701 44.7846 12.598 44.7846 13.5687V34.4313C44.7846 35.402 44.2667 36.299 43.4261 36.7844L25.3585 47.2156C24.5179 47.701 23.4821 47.701 22.6415 47.2156L4.57393 36.7844C3.73326 36.299 3.21539 35.402 3.21539 34.4313V13.5687C3.21539 12.598 3.73326 11.701 4.57393 11.2156L22.6415 0.78435Z" fill="#B015E7"/>
<path d="M28.3065 14.3332H24.8332L25.5048 10.304C25.5248 10.1845 25.5185 10.0622 25.4864 9.94538C25.4543 9.8286 25.397 9.72023 25.3187 9.62782C25.2405 9.5354 25.143 9.46117 25.033 9.41028C24.9231 9.35939 24.8035 9.33308 24.6823 9.33316H20.389C20.1919 9.33322 20.0011 9.40316 19.8507 9.53056C19.7003 9.65796 19.5999 9.83456 19.5673 10.029L18.1782 18.3623C18.1582 18.4817 18.1645 18.604 18.1966 18.7207C18.2287 18.8375 18.2858 18.9458 18.364 19.0382C18.4422 19.1306 18.5396 19.2048 18.6494 19.2558C18.7592 19.3067 18.8788 19.3331 18.9998 19.3332H22.3332V25.9998L29.0082 15.6173C29.0892 15.4914 29.1348 15.3459 29.1401 15.1963C29.1455 15.0467 29.1104 14.8983 29.0386 14.7669C28.9668 14.6355 28.8609 14.5259 28.7321 14.4495C28.6033 14.3732 28.4562 14.333 28.3065 14.3332Z" fill="white"/>
<path d="M9.51247 36.072C8.96847 36.072 8.55247 35.904 8.26447 35.568C7.9818 35.232 7.82447 34.7707 7.79247 34.184L8.59247 33.968C8.61914 34.384 8.69914 34.72 8.83247 34.976C8.97114 35.232 9.1978 35.36 9.51247 35.36C9.74714 35.36 9.92314 35.296 10.0405 35.168C10.1631 35.0347 10.2245 34.8453 10.2245 34.6C10.2245 34.3333 10.1685 34.112 10.0565 33.936C9.94447 33.76 9.7658 33.5653 9.52047 33.352L8.43247 32.392C8.2138 32.2 8.0538 31.9947 7.95247 31.776C7.85647 31.552 7.80847 31.28 7.80847 30.96C7.80847 30.4853 7.94447 30.1173 8.21647 29.856C8.48847 29.5947 8.85914 29.464 9.32847 29.464C9.84047 29.464 10.2271 29.6 10.4885 29.872C10.7498 30.144 10.9071 30.5653 10.9605 31.136L10.1925 31.344C10.1658 30.9653 10.0911 30.6747 9.96847 30.472C9.85114 30.264 9.6378 30.16 9.32847 30.16C9.09914 30.16 8.92314 30.2213 8.80047 30.344C8.6778 30.4613 8.61647 30.6373 8.61647 30.872C8.61647 31.064 8.64847 31.2267 8.71247 31.36C8.77647 31.488 8.8858 31.6187 9.04047 31.752L10.1365 32.712C10.4191 32.9627 10.6431 33.2347 10.8085 33.528C10.9791 33.8213 11.0645 34.1547 11.0645 34.528C11.0645 35.0027 10.9205 35.3787 10.6325 35.656C10.3445 35.9333 9.97114 36.072 9.51247 36.072ZM11.7657 29.52H13.3737C13.9337 29.52 14.3391 29.672 14.5897 29.976C14.8457 30.28 14.9737 30.7253 14.9737 31.312C14.9737 31.84 14.8377 32.2507 14.5657 32.544C14.2937 32.8373 13.8991 32.984 13.3817 32.984H12.6697V36H11.7657V29.52ZM13.0857 32.336C13.3524 32.336 13.5577 32.3067 13.7017 32.248C13.8511 32.1893 13.9577 32.088 14.0217 31.944C14.0857 31.8 14.1177 31.592 14.1177 31.32C14.1177 30.9893 14.0937 30.7467 14.0457 30.592C13.9977 30.4373 13.9017 30.328 13.7577 30.264C13.6191 30.2 13.3977 30.168 13.0937 30.168H12.6697V32.336H13.0857ZM15.6095 29.52H16.9135C17.5695 29.52 18.0495 29.656 18.3535 29.928C18.6628 30.1947 18.8175 30.632 18.8175 31.24C18.8175 32.072 18.5508 32.576 18.0175 32.752L18.9375 36H18.0655L17.2175 32.96H16.5135V36H15.6095V29.52ZM16.8575 32.312C17.2468 32.312 17.5241 32.2347 17.6895 32.08C17.8601 31.9253 17.9455 31.6453 17.9455 31.24C17.9455 30.9733 17.9161 30.7653 17.8575 30.616C17.7988 30.4613 17.6948 30.3493 17.5455 30.28C17.3961 30.2053 17.1855 30.168 16.9135 30.168H16.5135V32.312H16.8575ZM19.8059 29.52H20.6939V36H19.8059V29.52ZM21.7423 29.52H22.3583L24.1983 33.824V29.52H24.9503V36H24.3743L22.5103 31.576V36H21.7423V29.52ZM26.6808 30.192H25.5848V29.52H28.6488V30.192H27.5848V36H26.6808V30.192ZM29.2735 29.52H31.7855V30.192H30.1775V32.336H31.4815V32.976H30.1775V35.352H31.8015V36H29.2735V29.52ZM34.2033 36.072C33.75 36.072 33.3953 35.9813 33.1393 35.8C32.8887 35.6187 32.7153 35.3653 32.6193 35.04C32.5233 34.7147 32.4753 34.3067 32.4753 33.816V29.52H33.3393V33.856C33.3393 34.3467 33.3953 34.72 33.5073 34.976C33.6247 35.232 33.8567 35.36 34.2033 35.36C34.55 35.36 34.7793 35.232 34.8913 34.976C35.0087 34.72 35.0673 34.3467 35.0673 33.856V29.52H35.9233V33.816C35.9233 34.3067 35.8753 34.7147 35.7793 35.04C35.6833 35.3653 35.51 35.6187 35.2593 35.8C35.0087 35.9813 34.6567 36.072 34.2033 36.072ZM36.8751 29.52H38.1791C38.8351 29.52 39.3151 29.656 39.6191 29.928C39.9284 30.1947 40.0831 30.632 40.0831 31.24C40.0831 32.072 39.8164 32.576 39.2831 32.752L40.2031 36H39.3311L38.4831 32.96H37.7791V36H36.8751V29.52ZM38.1231 32.312C38.5124 32.312 38.7898 32.2347 38.9551 32.08C39.1258 31.9253 39.2111 31.6453 39.2111 31.24C39.2111 30.9733 39.1818 30.7653 39.1231 30.616C39.0644 30.4613 38.9604 30.3493 38.8111 30.28C38.6618 30.2053 38.4511 30.168 38.1791 30.168H37.7791V32.312H38.1231Z" fill="white"/>
</svg>
