<svg width="48" height="48" viewBox="0 0 48 48" fill="none" xmlns="http://www.w3.org/2000/svg">
<path d="M22.6415 0.78435C23.4821 0.298992 24.5179 0.298993 25.3585 0.78435L43.4261 11.2156C44.2667 11.701 44.7846 12.598 44.7846 13.5687V34.4313C44.7846 35.402 44.2667 36.299 43.4261 36.7844L25.3585 47.2156C24.5179 47.701 23.4821 47.701 22.6415 47.2156L4.57393 36.7844C3.73326 36.299 3.21539 35.402 3.21539 34.4313V13.5687C3.21539 12.598 3.73326 11.701 4.57393 11.2156L22.6415 0.78435Z" fill="black"/>
<path d="M17.4031 36.072C16.8591 36.072 16.4431 35.904 16.1551 35.568C15.8724 35.232 15.7151 34.7707 15.6831 34.184L16.4831 33.968C16.5098 34.384 16.5898 34.72 16.7231 34.976C16.8618 35.232 17.0884 35.36 17.4031 35.36C17.6378 35.36 17.8138 35.296 17.9311 35.168C18.0538 35.0347 18.1151 34.8453 18.1151 34.6C18.1151 34.3333 18.0591 34.112 17.9471 33.936C17.8351 33.76 17.6564 33.5653 17.4111 33.352L16.3231 32.392C16.1044 32.2 15.9444 31.9947 15.8431 31.776C15.7471 31.552 15.6991 31.28 15.6991 30.96C15.6991 30.4853 15.8351 30.1173 16.1071 29.856C16.3791 29.5947 16.7498 29.464 17.2191 29.464C17.7311 29.464 18.1178 29.6 18.3791 29.872C18.6404 30.144 18.7978 30.5653 18.8511 31.136L18.0831 31.344C18.0564 30.9653 17.9818 30.6747 17.8591 30.472C17.7418 30.264 17.5284 30.16 17.2191 30.16C16.9898 30.16 16.8138 30.2213 16.6911 30.344C16.5684 30.4613 16.5071 30.6373 16.5071 30.872C16.5071 31.064 16.5391 31.2267 16.6031 31.36C16.6671 31.488 16.7764 31.6187 16.9311 31.752L18.0271 32.712C18.3098 32.9627 18.5338 33.2347 18.6991 33.528C18.8698 33.8213 18.9551 34.1547 18.9551 34.528C18.9551 35.0027 18.8111 35.3787 18.5231 35.656C18.2351 35.9333 17.8618 36.072 17.4031 36.072ZM20.3683 30.192H19.2723V29.52H22.3363V30.192H21.2723V36H20.3683V30.192ZM23.9694 29.52H24.8414L26.2254 36H25.3694L25.0734 34.368H23.7534L23.4414 36H22.5934L23.9694 29.52ZM24.9534 33.72L24.4094 30.8L23.8734 33.72H24.9534ZM26.8829 29.52H29.3869V30.168H27.7869V32.328H29.0269V32.968H27.7869V36H26.8829V29.52ZM30.0079 29.52H32.5119V30.168H30.9119V32.328H32.1519V32.968H30.9119V36H30.0079V29.52Z" fill="white"/>
<path d="M25.5806 9.18125C25.116 7.60625 22.884 7.60625 22.4194 9.18125L22.3069 9.56375C22.2375 9.79954 22.1161 10.0168 21.9518 10.1996C21.7875 10.3824 21.5843 10.5261 21.3573 10.6202C21.1302 10.7143 20.8849 10.7563 20.6395 10.7433C20.394 10.7302 20.1546 10.6624 19.9387 10.5448L19.59 10.3535C18.1466 9.56825 16.5682 11.1466 17.3546 12.5889L17.5448 12.9387C18.0465 13.8612 17.5706 15.0099 16.5637 15.3069L16.1812 15.4194C14.6062 15.884 14.6062 18.116 16.1812 18.5806L16.5637 18.6931C16.7995 18.7625 17.0168 18.8839 17.1996 19.0482C17.3824 19.2125 17.5261 19.4157 17.6202 19.6427C17.7143 19.8698 17.7563 20.1151 17.7433 20.3605C17.7302 20.606 17.6624 20.8454 17.5448 21.0612L17.3535 21.41C16.5682 22.8534 18.1466 24.4317 19.5889 23.6454L19.9387 23.4552C20.1546 23.3376 20.394 23.2698 20.6395 23.2567C20.8849 23.2437 21.1302 23.2857 21.3573 23.3798C21.5843 23.4739 21.7875 23.6176 21.9518 23.8004C22.1161 23.9832 22.2375 24.2005 22.3069 24.4362L22.4194 24.8187C22.884 26.3937 25.116 26.3937 25.5806 24.8187L25.6931 24.4362C25.7625 24.2005 25.8839 23.9832 26.0482 23.8004C26.2125 23.6176 26.4157 23.4739 26.6427 23.3798C26.8698 23.2857 27.1151 23.2437 27.3605 23.2567C27.606 23.2698 27.8454 23.3376 28.0612 23.4552L28.41 23.6465C29.8534 24.4318 31.4317 22.8534 30.6454 21.4111L30.4552 21.0612C30.3376 20.8454 30.2698 20.606 30.2567 20.3605C30.2437 20.1151 30.2857 19.8698 30.3798 19.6427C30.4739 19.4157 30.6176 19.2125 30.8004 19.0482C30.9832 18.8839 31.2005 18.7625 31.4362 18.6931L31.8187 18.5806C33.3937 18.116 33.3937 15.884 31.8187 15.4194L31.4362 15.3069C31.2005 15.2375 30.9832 15.1161 30.8004 14.9518C30.6176 14.7875 30.4739 14.5843 30.3798 14.3573C30.2857 14.1302 30.2437 13.8849 30.2567 13.6395C30.2698 13.394 30.3376 13.1546 30.4552 12.9387L30.6465 12.59C31.4318 11.1466 29.8534 9.56825 28.4111 10.3546L28.0612 10.5448C27.8454 10.6624 27.606 10.7302 27.3605 10.7433C27.1151 10.7563 26.8698 10.7143 26.6427 10.6202C26.4157 10.5261 26.2125 10.3824 26.0482 10.1996C25.8839 10.0168 25.7625 9.79954 25.6931 9.56375L25.5806 9.18125V9.18125ZM24 20.2963C23.1258 20.2963 22.2874 19.949 21.6692 19.3308C21.051 18.7126 20.7038 17.8742 20.7038 17C20.7038 16.1258 21.051 15.2874 21.6692 14.6692C22.2874 14.051 23.1258 13.7038 24 13.7038C24.8739 13.7038 25.712 14.0509 26.33 14.6689C26.948 15.2868 27.2951 16.125 27.2951 16.9989C27.2951 17.8728 26.948 18.7109 26.33 19.3289C25.712 19.9468 24.8739 20.294 24 20.294V20.2963Z" fill="white"/>
</svg>
